<svg xmlns="http://www.w3.org/2000/svg" viewBox="0 0 32 32" fill="#25D366">
  <path d="M16.02 2.01C8.3 2.01 2.02 8.29 2.02 16c0 2.82.74 5.57 2.15 7.98L2 30l6.21-2.05c2.35 1.29 5.02 1.97 7.81 1.97 7.72 0 14-6.28 14-14s-6.28-13.91-14-13.91zm0 25.44c-2.45 0-4.86-.66-6.95-1.91l-.5-.3-3.68 1.21 1.23-3.59-.33-.52a11.39 11.39 0 01-1.75-6.05c0-6.32 5.15-11.47 11.48-11.47 6.32 0 11.47 5.15 11.47 11.47 0 6.33-5.15 11.48-11.47 11.48zm6.32-8.6c-.34-.17-2-.99-2.32-1.1-.31-.11-.54-.17-.77.17-.23.34-.89 1.1-1.09 1.32-.2.23-.4.26-.74.09-.34-.17-1.45-.53-2.76-1.7-1.02-.91-1.71-2.04-1.91-2.38-.2-.34-.02-.52.15-.69.15-.15.34-.4.51-.6.17-.2.23-.34.34-.57.11-.23.06-.43-.03-.6-.09-.17-.77-1.85-1.05-2.53-.28-.67-.57-.58-.77-.59h-.66c-.23 0-.6.09-.91.43-.31.34-1.2 1.17-1.2 2.86 0 1.69 1.23 3.32 1.4 3.55.17.23 2.42 3.7 5.87 5.19.82.35 1.46.56 1.96.71.82.26 1.57.22 2.16.13.66-.1 2-.82 2.28-1.61.28-.79.28-1.47.2-1.61-.08-.14-.31-.23-.65-.4z"></path>
</svg>
